<svg width="160" height="160" viewBox="0 0 160 160" fill="none" xmlns="http://www.w3.org/2000/svg">
<path d="M43.3204 142.842L0 125.928V73.3076L43.3204 90.2241V142.842Z" fill="#FA9706"/>
<path d="M43.3203 142.842L86.6457 125.928V73.3076L43.3203 90.2241V142.842Z" fill="#3E0563"/>
<path d="M43.3204 56.3914L0 73.3076L43.3204 90.2241L86.6408 73.3076L43.3204 56.3914Z" fill="#FFCE54"/>
<path d="M45.6779 70.5056C46.9767 71.8069 46.9767 73.9186 45.6779 75.2198C44.3744 76.5211 42.265 76.5211 40.9659 75.2198C39.6624 73.9186 39.6624 71.8069 40.9659 70.5056C42.265 69.2043 44.3744 69.2043 45.6779 70.5056Z" fill="#434A54"/>
<path d="M70.9565 93.9254C69.6577 95.2342 69.6577 97.3437 70.9565 98.6424C72.2603 99.9412 74.3694 99.9412 75.6686 98.6424C76.9723 97.3437 76.9723 95.2342 75.6686 93.9254C74.3698 92.6263 72.2603 92.6263 70.9565 93.9254Z" fill="#434A54"/>
<path d="M15.6832 93.9254C16.9867 95.2342 16.9867 97.3437 15.6832 98.6424C14.3844 99.9412 12.275 99.9412 10.9712 98.6424C9.67237 97.3437 9.67237 95.2342 10.9712 93.9254C12.275 92.6263 14.3844 92.6263 15.6832 93.9254Z" fill="#434A54"/>
<path d="M32.3481 117.158C33.6469 118.467 33.6469 120.576 32.3481 121.875C31.0443 123.174 28.9352 123.174 27.636 121.875C26.3323 120.576 26.3323 118.467 27.636 117.158C28.9348 115.859 31.0443 115.859 32.3481 117.158Z" fill="#434A54"/>
<path d="M54.2962 117.256C52.9924 118.554 52.9924 120.664 54.2962 121.973C55.595 123.271 57.7044 123.271 59.0082 121.973C60.307 120.664 60.307 118.554 59.0082 117.256C57.7044 115.957 55.595 115.957 54.2962 117.256Z" fill="#434A54"/>
<path d="M62.6263 105.595C61.3225 106.894 61.3225 109.003 62.6263 110.302C63.9251 111.611 66.0345 111.611 67.3383 110.302C68.6421 109.003 68.6421 106.895 67.3383 105.595C66.0345 104.287 63.9251 104.287 62.6263 105.595Z" fill="#434A54"/>
<path d="M127.006 98.1978L80.5321 99.9509L59.5605 51.6897L106.035 49.9388L127.006 98.1978Z" fill="#FA9706"/>
<path d="M127.006 98.1978L160 65.4152L139.028 17.158L106.035 49.9388L127.006 98.1978Z" fill="#3E0563"/>
<path d="M92.5485 18.9084L59.5605 51.6897L106.035 49.9387L139.028 17.158L92.5485 18.9084Z" fill="#FFCE54"/>
<path d="M100.498 30.6982C102.202 31.3819 103.032 33.3226 102.349 35.0317C101.665 36.738 99.7267 37.5684 98.0179 36.8846C96.3088 36.1986 95.4787 34.2601 96.1622 32.5513C96.8457 30.8422 98.7892 30.0119 100.498 30.6982Z" fill="#434A54"/>
<path d="M82.0947 63.9429C83.8038 64.6267 84.6338 66.5674 83.9504 68.274C83.2666 69.9831 81.3281 70.8132 79.6193 70.1297C77.9105 69.4437 77.0801 67.5052 77.7639 65.7961C78.447 64.087 80.3906 63.2567 82.0947 63.9429Z" fill="#434A54"/>
<path d="M107.9 81.8991C109.609 82.5829 110.439 84.5236 109.756 86.2302C109.072 87.9393 107.129 88.7693 105.425 88.0859C103.716 87.4021 102.886 85.4589 103.569 83.7523C104.253 82.0432 106.192 81.2132 107.9 81.8991Z" fill="#434A54"/>
<path d="M100.039 63.5154C101.748 64.1989 102.578 66.1399 101.89 67.849C101.206 69.5556 99.2677 70.3856 97.5589 69.7022C95.8501 69.0187 95.0197 67.0777 95.7032 65.3686C96.3869 63.6595 98.3301 62.8298 100.039 63.5154Z" fill="#434A54"/>
<path d="M89.9603 82.3241C91.6694 83.0101 92.4994 84.9486 91.816 86.6602C91.1322 88.3693 89.189 89.1994 87.4805 88.5159C85.7714 87.8275 84.9414 85.889 85.6298 84.1773C86.3133 82.4704 88.2512 81.6404 89.9603 82.3241Z" fill="#434A54"/>
<path d="M132.915 42.2019C132.227 43.9082 133.057 45.8492 134.766 46.5352C136.475 47.219 138.418 46.3886 139.102 44.6798C139.785 42.9732 138.955 41.0325 137.246 40.3463C135.537 39.6628 133.599 40.4931 132.915 42.2019Z" fill="#434A54"/>
<path d="M140.777 60.5835C140.093 62.2923 140.923 64.2333 142.632 64.9167C144.341 65.6027 146.279 64.7727 146.963 63.0638C147.651 61.355 146.821 59.4165 145.112 58.7303C143.404 58.0465 141.465 58.8768 140.777 60.5835Z" fill="#434A54"/>
<path d="M120.215 54.8823C119.531 56.5914 120.362 58.5299 122.071 59.2159C123.78 59.8997 125.718 59.0693 126.401 57.3627C127.085 55.6536 126.255 53.7129 124.551 53.0292C122.842 52.3438 120.899 53.1735 120.215 54.8823Z" fill="#434A54"/>
<path d="M128.08 73.2664C127.397 74.9755 128.227 76.914 129.931 77.5999C131.64 78.2837 133.584 77.4534 134.267 75.7442C134.951 74.0351 134.121 72.0969 132.411 71.4132C130.702 70.7278 128.764 71.5576 128.08 73.2664Z" fill="#434A54"/>
<path d="M130.497 57.7365C129.814 59.4456 130.644 61.3866 132.353 62.0701C134.062 62.756 136.001 61.926 136.684 60.2172C137.368 58.5081 136.537 56.5671 134.833 55.8836C133.124 55.2002 131.181 56.0299 130.497 57.7365Z" fill="#434A54"/>
</svg>
