<svg width="70" height="70" viewBox="0 0 70 70" fill="none" xmlns="http://www.w3.org/2000/svg">
<circle cx="35" cy="35" r="35" transform="rotate(180 35 35)" fill="#EEE8F2"/>
<path d="M30.0957 45.968C29.2037 45.096 29.1337 43.882 30.0957 42.816L37.5897 35L30.0957 27.184C29.1337 26.118 29.2037 24.902 30.0957 24.036C30.9857 23.164 32.4897 23.22 33.3257 24.036C34.1617 24.848 42.3297 33.426 42.3297 33.426C42.5414 33.6303 42.7097 33.8751 42.8247 34.1459C42.9398 34.4167 42.999 34.7078 42.999 35.002C42.999 35.2962 42.9398 35.5874 42.8247 35.8581C42.7097 36.1289 42.5414 36.3737 42.3297 36.578C42.3297 36.578 34.1617 45.152 33.3257 45.968C32.4897 46.786 30.9857 46.84 30.0957 45.968Z" fill="#3E0563"/>
</svg>
