<svg width="18" height="18" viewBox="0 0 18 18" fill="none" xmlns="http://www.w3.org/2000/svg">
<path d="M9 0.000366211C4.02996 0.000366211 0 4.02953 0 8.99997C0 13.9704 4.02956 17.9996 9 17.9996C13.9708 17.9996 18 13.9704 18 8.99997C18 4.02953 13.9708 0.000366211 9 0.000366211ZM9 2.69135C10.6446 2.69135 11.9772 4.02439 11.9772 5.66816C11.9772 7.31232 10.6446 8.64497 9 8.64497C7.35623 8.64497 6.02359 7.31232 6.02359 5.66816C6.02359 4.02439 7.35623 2.69135 9 2.69135ZM8.99802 15.6466C7.35781 15.6466 5.85557 15.0493 4.69687 14.0605C4.41461 13.8198 4.25173 13.4668 4.25173 13.0963C4.25173 11.4293 5.60098 10.095 7.26847 10.095H10.7323C12.4002 10.095 13.7443 11.4293 13.7443 13.0963C13.7443 13.4672 13.5822 13.8194 13.2996 14.0602C12.1413 15.0493 10.6386 15.6466 8.99802 15.6466Z" fill="#3E0563"/>
</svg>
