<svg width="40" height="40" viewBox="0 0 40 40" fill="none" xmlns="http://www.w3.org/2000/svg">
<path d="M36.1661 0.383362H3.83387C1.71987 0.383362 0 2.10323 0 4.21723V35.7827C0 37.8967 1.71987 39.6166 3.83387 39.6166H36.1661C38.2801 39.6166 40 37.8967 40 35.7827V4.21723C40 2.10323 38.2801 0.383362 36.1661 0.383362ZM36.1661 4.21723L36.1674 20.9876L29.6904 14.9048C29.2374 14.4796 28.6574 14.2455 28.0571 14.2455C27.3268 14.2455 26.6433 14.5881 26.182 15.1853L18.5573 25.0583C18.3102 25.3783 17.9137 25.5693 17.4967 25.5693C17.2127 25.5693 16.9442 25.4829 16.7203 25.3193L11.7652 21.7007C11.2717 21.3402 10.6323 21.1417 9.96524 21.1417C9.20549 21.1417 8.49508 21.3894 7.96524 21.839L3.83387 25.3431V4.21723H36.1661Z" fill="#9E82B1"/>
<path d="M14.6965 15.591C16.8809 15.591 18.6582 13.8138 18.6582 11.6294C18.6582 9.44498 16.8809 7.66772 14.6965 7.66772C12.5121 7.66772 10.7349 9.44498 10.7349 11.6294C10.7349 13.8138 12.5121 15.591 14.6965 15.591Z" fill="#9E82B1"/>
</svg>
