<svg width="24" height="24" viewBox="0 0 24 24" fill="none" xmlns="http://www.w3.org/2000/svg">
<path d="M16.8503 0H7.14973C3.20735 0 0 3.20735 0 7.14973V16.8503C0 20.7926 3.20735 24 7.14973 24H16.8503C20.7926 24 24 20.7926 24 16.8503V7.14973C24 3.20735 20.7926 0 16.8503 0ZM21.5856 16.8503C21.5856 19.4655 19.4655 21.5856 16.8503 21.5856H7.14973C4.5345 21.5856 2.4144 19.4655 2.4144 16.8503V7.14973C2.4144 4.53446 4.5345 2.4144 7.14973 2.4144H16.8503C19.4655 2.4144 21.5856 4.53446 21.5856 7.14973V16.8503Z" fill="url(#paint0_linear_1_7478)"/>
<path d="M12 5.79275C8.57729 5.79275 5.79272 8.57732 5.79272 12C5.79272 15.4226 8.57729 18.2072 12 18.2072C15.4227 18.2072 18.2072 15.4226 18.2072 12C18.2072 8.57727 15.4227 5.79275 12 5.79275ZM12 15.7929C9.90523 15.7929 8.20712 14.0948 8.20712 12C8.20712 9.90525 9.90527 8.20715 12 8.20715C14.0947 8.20715 15.7928 9.90525 15.7928 12C15.7928 14.0947 14.0947 15.7929 12 15.7929Z" fill="url(#paint1_linear_1_7478)"/>
<path d="M18.2192 7.32678C19.0406 7.32678 19.7065 6.66087 19.7065 5.83944C19.7065 5.018 19.0406 4.3521 18.2192 4.3521C17.3977 4.3521 16.7318 5.018 16.7318 5.83944C16.7318 6.66087 17.3977 7.32678 18.2192 7.32678Z" fill="url(#paint2_linear_1_7478)"/>
<defs>
<linearGradient id="paint0_linear_1_7478" x1="12" y1="23.9301" x2="12" y2="0.186403" gradientUnits="userSpaceOnUse">
<stop stop-color="#E09B3D"/>
<stop offset="0.3" stop-color="#C74C4D"/>
<stop offset="0.6" stop-color="#C21975"/>
<stop offset="1" stop-color="#7024C4"/>
</linearGradient>
<linearGradient id="paint1_linear_1_7478" x1="12" y1="23.9301" x2="12" y2="0.186405" gradientUnits="userSpaceOnUse">
<stop stop-color="#E09B3D"/>
<stop offset="0.3" stop-color="#C74C4D"/>
<stop offset="0.6" stop-color="#C21975"/>
<stop offset="1" stop-color="#7024C4"/>
</linearGradient>
<linearGradient id="paint2_linear_1_7478" x1="18.2192" y1="23.9301" x2="18.2192" y2="0.186408" gradientUnits="userSpaceOnUse">
<stop stop-color="#E09B3D"/>
<stop offset="0.3" stop-color="#C74C4D"/>
<stop offset="0.6" stop-color="#C21975"/>
<stop offset="1" stop-color="#7024C4"/>
</linearGradient>
</defs>
</svg>
