<svg width="80" height="80" viewBox="0 0 80 80" fill="none" xmlns="http://www.w3.org/2000/svg">
<g clip-path="url(#clip0_1_1546)">
<path d="M8.85873 53.0599L26.9401 71.1413L34.5376 66.1845L13.8153 45.4622L8.85873 53.0599Z" fill="#FA9706"/>
<path d="M34.1345 14.9579L19.4455 15.6705L3.9451 31.1708L14.545 34.5472L34.1345 14.9579Z" fill="#FA9706"/>
<path d="M48.8292 76.0547L64.3295 60.5544L65.0421 45.8653L45.4528 65.4548L48.8292 76.0547Z" fill="#FA9706"/>
<path d="M0.000167847 61.9595L5.8418 56.1177L9.48656 59.7625L3.64494 65.6041L0.000167847 61.9595Z" fill="#FA9706"/>
<path d="M18.0395 80L14.3947 76.3552L20.2363 70.5134L23.8811 74.1582L18.0395 80Z" fill="#FA9706"/>
<path d="M4.29904 71.7985L12.9109 63.1866L16.5557 66.8314L7.94381 75.4432L4.29904 71.7985Z" fill="#FA9706"/>
<path d="M62.7029 19.8741C64.1263 19.8741 65.2802 18.7203 65.2802 17.2969C65.2802 15.8735 64.1263 14.7196 62.7029 14.7196C61.2796 14.7196 60.1257 15.8735 60.1257 17.2969C60.1257 18.7203 61.2796 19.8741 62.7029 19.8741Z" fill="#FA9706"/>
<path d="M78.1713 1.82866C68.0625 -1.98896 56.2112 0.17096 48.0737 8.30824L16.0124 40.3696L39.6304 63.9874L71.6918 31.9261C79.829 23.7888 81.9888 11.9375 78.1713 1.82866ZM68.1702 22.7641C65.1507 25.7835 60.2552 25.7835 57.2357 22.7641C54.2162 19.7446 54.2162 14.8492 57.2357 11.8296C60.2552 8.81012 65.1507 8.81012 68.1702 11.8296C71.1895 14.8492 71.1895 19.7448 68.1702 22.7641Z" fill="#FA9706"/>
</g>
<defs>
<clipPath id="clip0_1_1546">
<rect width="80" height="80" fill="white"/>
</clipPath>
</defs>
</svg>
