<svg width="80" height="80" viewBox="0 0 80 80" fill="none" xmlns="http://www.w3.org/2000/svg">
<g clip-path="url(#clip0_1_10458)">
<path d="M76.1396 39.4809L68.4323 39.4792C66.3047 39.481 64.577 41.2052 64.5736 43.3329V75.9524C64.5736 78.0835 66.3047 79.8095 68.4323 79.8095H76.1396C78.2706 79.8095 80 78.0835 80 75.9524V43.3397C80 41.2086 78.2706 39.4809 76.1396 39.4809ZM73.0672 75.7805C71.8315 77.018 69.8281 77.018 68.5923 75.7805C67.3566 74.5431 67.3566 72.5431 68.5923 71.3073C69.8281 70.0682 71.8332 70.0682 73.0672 71.3073C74.3013 72.5414 74.3013 74.5431 73.0672 75.7805Z" fill="#FA9706"/>
<path d="M49.4945 16.6724C49.8298 11.7549 51.1438 9.26642 51.6017 4.41025C51.8638 1.64259 48.9651 0.190674 43.6919 0.190674C38.4187 0.190674 36.3762 4.91067 35.7804 6.51918C34.463 10.08 35.7804 21.8128 35.7804 27.6154C35.7804 32.1873 27.6017 34.6962 18.2434 34.7115C5.37021 34.7371 1.25789e-06 31.6596 1.25789e-06 39.7362C1.25789e-06 42.5311 1.72426 44.7966 3.85532 44.7949C1.72426 44.7949 -0.00170087 47.0656 1.25789e-06 49.8571C1.25789e-06 52.6485 1.72426 54.9192 3.85532 54.9141C1.72426 54.9175 0.00170339 57.183 1.25789e-06 59.9711C1.25789e-06 62.7711 1.72766 65.0315 3.85532 65.0349C1.72766 65.0315 1.25788e-06 67.2988 0.00170339 70.0988C0.00170339 72.8953 1.72596 75.1575 3.85532 75.1575C3.85532 75.1575 9.33447 75.1626 30.1174 75.1626C50.9004 75.1626 58.4936 75.1626 58.4936 75.1626C59.5574 75.1626 60.4187 74.2996 60.4204 73.2324V43.949C60.4221 43.6375 60.3438 43.3328 60.2008 43.0571C60.1991 43.0571 48.5702 30.2519 49.4945 16.6724Z" fill="#FA9706"/>
</g>
<defs>
<clipPath id="clip0_1_10458">
<rect width="80" height="80" fill="white"/>
</clipPath>
</defs>
</svg>
