<svg width="24" height="24" viewBox="0 0 24 24" fill="none" xmlns="http://www.w3.org/2000/svg">
<g clip-path="url(#clip0_1_7487)">
<path d="M12.0001 23.9998C18.6275 23.9998 24 18.6273 24 11.9999C24 5.37254 18.6275 0 12.0001 0C5.37278 0 0.000244141 5.37254 0.000244141 11.9999C0.000244141 18.6273 5.37278 23.9998 12.0001 23.9998Z" fill="#55ACEE"/>
<path d="M19.3505 8.62398C18.8362 8.85201 18.2831 9.00623 17.7029 9.07511C18.2953 8.72024 18.7498 8.15872 18.9644 7.48855C18.4101 7.81733 17.796 8.05584 17.1429 8.18439C16.6197 7.62716 15.8742 7.27892 15.0487 7.27892C13.465 7.27892 12.1804 8.56344 12.1804 10.1472C12.1804 10.372 12.2059 10.5909 12.2551 10.8009C9.87127 10.6814 7.75763 9.53951 6.34283 7.80364C6.09597 8.22718 5.95437 8.72024 5.95437 9.24581C5.95437 10.2407 6.46112 11.119 7.23034 11.6333C6.76038 11.6185 6.3178 11.4895 5.93126 11.2741C5.93105 11.2863 5.93105 11.2985 5.93105 11.3105C5.93105 12.7002 6.92017 13.8594 8.23208 14.1227C7.99164 14.1886 7.73773 14.2235 7.47655 14.2235C7.2913 14.2235 7.11183 14.2057 6.93685 14.1724C7.30178 15.3116 8.36085 16.141 9.61629 16.1643C8.63444 16.9337 7.39783 17.3921 6.05362 17.3921C5.8226 17.3921 5.59371 17.3787 5.36975 17.3519C6.63845 18.1661 8.14651 18.6407 9.76624 18.6407C15.0421 18.6407 17.9273 14.2701 17.9273 10.4794C17.9273 10.3551 17.9245 10.2313 17.919 10.1085C18.4799 9.70422 18.9661 9.19918 19.3505 8.62398Z" fill="#F1F2F2"/>
</g>
<defs>
<clipPath id="clip0_1_7487">
<rect width="24" height="24" fill="white"/>
</clipPath>
</defs>
</svg>
